<mxfile host="65bd71144e">
    <diagram id="gBSZ_7e9sKWmzLIpqArW" name="Page-1">
        <mxGraphModel dx="804" dy="3976" grid="1" gridSize="10" guides="1" tooltips="1" connect="1" arrows="1" fold="1" page="1" pageScale="1" pageWidth="827" pageHeight="1169" math="0" shadow="0">
            <root>
                <mxCell id="0"/>
                <mxCell id="1" parent="0"/>
                <mxCell id="7" value="&lt;font style=&quot;font-size: 25px&quot;&gt;Méthode d'Etude et de&lt;br&gt;&lt;/font&gt;&lt;font style=&quot;font-size: 25px&quot;&gt;&lt;font style=&quot;font-size: 25px&quot;&gt;Réalisation &lt;/font&gt;,&lt;br&gt;&lt;/font&gt;&lt;font style=&quot;font-size: 25px&quot;&gt;Informatique pour les&lt;br&gt;&lt;/font&gt;&lt;font style=&quot;font-size: 25px&quot;&gt;Systèmes d'E ntreprise&lt;/font&gt;" style="text;html=1;fillColor=none;align=center;verticalAlign=middle;whiteSpace=wrap;rounded=0;strokeWidth=3;perimeterSpacing=0;strokeColor=#f0f0f0;" parent="1" vertex="1">
                    <mxGeometry x="629.51" y="-2340" width="410.49" height="130" as="geometry"/>
                </mxCell>
                <mxCell id="74" value="" style="rounded=1;whiteSpace=wrap;html=1;" parent="1" vertex="1">
                    <mxGeometry x="597.2" y="-2180" width="622.8" height="220" as="geometry"/>
                </mxCell>
                <mxCell id="75" value="" style="endArrow=none;html=1;entryX=1;entryY=0.25;entryDx=0;entryDy=0;exitX=0;exitY=0.25;exitDx=0;exitDy=0;" parent="1" source="74" target="74" edge="1">
                    <mxGeometry width="50" height="50" relative="1" as="geometry">
                        <mxPoint x="787.2" y="-1970" as="sourcePoint"/>
                        <mxPoint x="837.2" y="-2020" as="targetPoint"/>
                        <Array as="points">
                            <mxPoint x="810" y="-2125"/>
                        </Array>
                    </mxGeometry>
                </mxCell>
                <mxCell id="76" value="" style="endArrow=none;html=1;exitX=0.167;exitY=0.998;exitDx=0;exitDy=0;exitPerimeter=0;entryX=0.17;entryY=0.006;entryDx=0;entryDy=0;entryPerimeter=0;" parent="1" source="74" target="74" edge="1">
                    <mxGeometry width="50" height="50" relative="1" as="geometry">
                        <mxPoint x="787.2" y="-1970" as="sourcePoint"/>
                        <mxPoint x="677.2" y="-2180" as="targetPoint"/>
                    </mxGeometry>
                </mxCell>
                <mxCell id="77" value="" style="endArrow=none;html=1;exitX=0.167;exitY=0.998;exitDx=0;exitDy=0;exitPerimeter=0;entryX=0.17;entryY=0.006;entryDx=0;entryDy=0;entryPerimeter=0;" parent="1" edge="1">
                    <mxGeometry width="50" height="50" relative="1" as="geometry">
                        <mxPoint x="797.2" y="-1961.76" as="sourcePoint"/>
                        <mxPoint x="798.6700000000001" y="-2180" as="targetPoint"/>
                    </mxGeometry>
                </mxCell>
                <mxCell id="78" value="" style="endArrow=none;html=1;exitX=0.167;exitY=0.998;exitDx=0;exitDy=0;exitPerimeter=0;entryX=0.17;entryY=0.006;entryDx=0;entryDy=0;entryPerimeter=0;" parent="1" edge="1">
                    <mxGeometry width="50" height="50" relative="1" as="geometry">
                        <mxPoint x="897.2" y="-1960" as="sourcePoint"/>
                        <mxPoint x="898.6700000000001" y="-2178.24" as="targetPoint"/>
                    </mxGeometry>
                </mxCell>
                <mxCell id="79" value="NAME" style="text;html=1;fillColor=none;align=center;verticalAlign=middle;whiteSpace=wrap;rounded=0;strokeWidth=1;perimeterSpacing=0;" parent="1" vertex="1">
                    <mxGeometry x="627.2" y="-2170" width="40" height="40" as="geometry"/>
                </mxCell>
                <mxCell id="80" value="Type" style="text;html=1;fillColor=none;align=center;verticalAlign=middle;whiteSpace=wrap;rounded=0;strokeWidth=1;perimeterSpacing=0;" parent="1" vertex="1">
                    <mxGeometry x="697.2" y="-2170" width="70" height="40" as="geometry"/>
                </mxCell>
                <mxCell id="81" value="Taille" style="text;html=1;fillColor=none;align=center;verticalAlign=middle;whiteSpace=wrap;rounded=0;strokeWidth=1;perimeterSpacing=0;" parent="1" vertex="1">
                    <mxGeometry x="827.2" y="-2170" width="70" height="40" as="geometry"/>
                </mxCell>
                <mxCell id="83" value="" style="endArrow=none;html=1;" parent="1" target="74" edge="1">
                    <mxGeometry width="50" height="50" relative="1" as="geometry">
                        <mxPoint x="1012.2" y="-1960" as="sourcePoint"/>
                        <mxPoint x="1012.2" y="-2120" as="targetPoint"/>
                    </mxGeometry>
                </mxCell>
                <mxCell id="84" value="Name_user&lt;span style=&quot;color: rgba(0 , 0 , 0 , 0) ; font-family: monospace ; font-size: 0px&quot;&gt;%3CmxGraphModel%3E%3Croot%3E%3CmxCell%20id%3D%220%22%2F%3E%3CmxCell%20id%3D%221%22%20parent%3D%220%22%2F%3E%3CmxCell%20id%3D%222%22%20value%3D%22NAME%22%20style%3D%22text%3Bhtml%3D1%3BfillColor%3Dnone%3Balign%3Dcenter%3BverticalAlign%3Dmiddle%3BwhiteSpace%3Dwrap%3Brounded%3D0%3BstrokeWidth%3D1%3BperimeterSpacing%3D0%3B%22%20vertex%3D%221%22%20parent%3D%221%22%3E%3CmxGeometry%20x%3D%22110%22%20y%3D%22110%22%20width%3D%2240%22%20height%3D%2240%22%20as%3D%22geometry%22%2F%3E%3C%2FmxCell%3E%3C%2Froot%3E%3C%2FmxGraphModel%3E&lt;/span&gt;" style="text;html=1;fillColor=none;align=center;verticalAlign=middle;whiteSpace=wrap;rounded=0;strokeWidth=1;perimeterSpacing=0;" parent="1" vertex="1">
                    <mxGeometry x="617.2" y="-2090" width="40" height="20" as="geometry"/>
                </mxCell>
                <mxCell id="85" value="id_user" style="text;html=1;align=center;verticalAlign=middle;whiteSpace=wrap;rounded=0;strokeWidth=1;perimeterSpacing=0;" parent="1" vertex="1">
                    <mxGeometry x="617.2" y="-2110" width="40" height="20" as="geometry"/>
                </mxCell>
                <mxCell id="87" value="Adress" style="text;html=1;fillColor=none;align=center;verticalAlign=middle;whiteSpace=wrap;rounded=0;strokeWidth=1;perimeterSpacing=0;" parent="1" vertex="1">
                    <mxGeometry x="617.2" y="-2029" width="40" height="20" as="geometry"/>
                </mxCell>
                <mxCell id="88" value="N" style="text;html=1;align=center;verticalAlign=middle;whiteSpace=wrap;rounded=0;strokeWidth=1;perimeterSpacing=0;" parent="1" vertex="1">
                    <mxGeometry x="712.2" y="-2120" width="40" height="40" as="geometry"/>
                </mxCell>
                <mxCell id="89" value="A" style="text;html=1;align=center;verticalAlign=middle;whiteSpace=wrap;rounded=0;strokeWidth=1;perimeterSpacing=0;" parent="1" vertex="1">
                    <mxGeometry x="712.2" y="-2100" width="40" height="40" as="geometry"/>
                </mxCell>
                <mxCell id="90" value="A" style="text;html=1;align=center;verticalAlign=middle;whiteSpace=wrap;rounded=0;strokeWidth=1;perimeterSpacing=0;" parent="1" vertex="1">
                    <mxGeometry x="712.2" y="-2080" width="40" height="40" as="geometry"/>
                </mxCell>
                <mxCell id="91" value="A-N" style="text;html=1;align=center;verticalAlign=middle;whiteSpace=wrap;rounded=0;strokeWidth=1;perimeterSpacing=0;" parent="1" vertex="1">
                    <mxGeometry x="712.2" y="-2050" width="40" height="20" as="geometry"/>
                </mxCell>
                <mxCell id="92" value="30" style="text;html=1;align=center;verticalAlign=middle;whiteSpace=wrap;rounded=0;strokeWidth=1;perimeterSpacing=0;" parent="1" vertex="1">
                    <mxGeometry x="842.2" y="-2120" width="40" height="40" as="geometry"/>
                </mxCell>
                <mxCell id="93" value="30" style="text;html=1;align=center;verticalAlign=middle;whiteSpace=wrap;rounded=0;strokeWidth=1;perimeterSpacing=0;" parent="1" vertex="1">
                    <mxGeometry x="842.2" y="-2100" width="40" height="40" as="geometry"/>
                </mxCell>
                <mxCell id="94" value="30" style="text;html=1;align=center;verticalAlign=middle;whiteSpace=wrap;rounded=0;strokeWidth=1;perimeterSpacing=0;" parent="1" vertex="1">
                    <mxGeometry x="842.2" y="-2080" width="40" height="40" as="geometry"/>
                </mxCell>
                <mxCell id="95" value="255" style="text;html=1;align=center;verticalAlign=middle;whiteSpace=wrap;rounded=0;strokeWidth=1;perimeterSpacing=0;" parent="1" vertex="1">
                    <mxGeometry x="842.2" y="-2060" width="40" height="40" as="geometry"/>
                </mxCell>
                <mxCell id="96" value="" style="endArrow=none;html=1;" parent="1" edge="1">
                    <mxGeometry width="50" height="50" relative="1" as="geometry">
                        <mxPoint x="900" y="-2104" as="sourcePoint"/>
                        <mxPoint x="1080" y="-2104" as="targetPoint"/>
                    </mxGeometry>
                </mxCell>
                <mxCell id="97" value="" style="endArrow=none;html=1;entryX=0.773;entryY=0.004;entryDx=0;entryDy=0;entryPerimeter=0;" parent="1" target="74" edge="1">
                    <mxGeometry width="50" height="50" relative="1" as="geometry">
                        <mxPoint x="1079.23" y="-1960" as="sourcePoint"/>
                        <mxPoint x="1079.23" y="-2123" as="targetPoint"/>
                    </mxGeometry>
                </mxCell>
                <mxCell id="98" value="&lt;span style=&quot;color: rgb(220 , 221 , 222) ; font-family: &amp;#34;whitney&amp;#34; , &amp;#34;helvetica neue&amp;#34; , &amp;#34;helvetica&amp;#34; , &amp;#34;arial&amp;#34; , sans-serif ; font-size: 16px ; text-align: left ; background-color: rgba(4 , 4 , 5 , 0.07)&quot;&gt;Elementaire&lt;br&gt;&lt;/span&gt;" style="text;html=1;align=center;verticalAlign=middle;whiteSpace=wrap;rounded=0;strokeWidth=1;perimeterSpacing=0;" parent="1" vertex="1">
                    <mxGeometry x="910.49" y="-2130" width="77.2" height="30" as="geometry"/>
                </mxCell>
                <mxCell id="104" value="Email" style="text;html=1;fillColor=none;align=center;verticalAlign=middle;whiteSpace=wrap;rounded=0;strokeWidth=1;perimeterSpacing=0;" parent="1" vertex="1">
                    <mxGeometry x="616.71" y="-2070" width="40" height="20" as="geometry"/>
                </mxCell>
                <mxCell id="105" value="Password" style="text;html=1;fillColor=none;align=center;verticalAlign=middle;whiteSpace=wrap;rounded=0;strokeWidth=1;perimeterSpacing=0;" parent="1" vertex="1">
                    <mxGeometry x="617.2" y="-2050" width="40" height="20" as="geometry"/>
                </mxCell>
                <mxCell id="106" value="A-N" style="text;html=1;align=center;verticalAlign=middle;whiteSpace=wrap;rounded=0;strokeWidth=1;perimeterSpacing=0;" parent="1" vertex="1">
                    <mxGeometry x="712.2" y="-2030" width="40" height="20" as="geometry"/>
                </mxCell>
                <mxCell id="107" value="A-N" style="text;html=1;align=center;verticalAlign=middle;whiteSpace=wrap;rounded=0;strokeWidth=1;perimeterSpacing=0;" parent="1" vertex="1">
                    <mxGeometry x="712.2" y="-2010" width="40" height="20" as="geometry"/>
                </mxCell>
                <mxCell id="116" value="Num" style="text;html=1;fillColor=none;align=center;verticalAlign=middle;whiteSpace=wrap;rounded=0;strokeWidth=1;perimeterSpacing=0;" parent="1" vertex="1">
                    <mxGeometry x="616.2" y="-2011" width="40" height="20" as="geometry"/>
                </mxCell>
                <mxCell id="126" value="" style="endArrow=none;html=1;" parent="1" edge="1">
                    <mxGeometry width="50" height="50" relative="1" as="geometry">
                        <mxPoint x="495" y="1158" as="sourcePoint"/>
                        <mxPoint x="495" y="1158" as="targetPoint"/>
                    </mxGeometry>
                </mxCell>
                <mxCell id="146" value="" style="whiteSpace=wrap;html=1;aspect=fixed;" parent="1" vertex="1">
                    <mxGeometry x="251.10000000000002" y="-1020" width="100" height="100" as="geometry"/>
                </mxCell>
                <mxCell id="147" value="User" style="text;html=1;strokeColor=none;fillColor=none;align=center;verticalAlign=middle;whiteSpace=wrap;rounded=0;" parent="1" vertex="1">
                    <mxGeometry x="278.1" y="-1018" width="40" height="20" as="geometry"/>
                </mxCell>
                <mxCell id="148" value="" style="endArrow=none;html=1;entryX=1.01;entryY=0.197;entryDx=0;entryDy=0;exitX=-0.011;exitY=0.189;exitDx=0;exitDy=0;entryPerimeter=0;exitPerimeter=0;" parent="1" source="146" target="146" edge="1">
                    <mxGeometry width="50" height="50" relative="1" as="geometry">
                        <mxPoint x="386.59000000000003" y="-960" as="sourcePoint"/>
                        <mxPoint x="436.59000000000003" y="-1010" as="targetPoint"/>
                        <Array as="points"/>
                    </mxGeometry>
                </mxCell>
                <mxCell id="149" value="&lt;font style=&quot;font-size: 8px&quot;&gt;User_id&lt;/font&gt;" style="text;html=1;strokeColor=none;fillColor=none;align=center;verticalAlign=middle;whiteSpace=wrap;rounded=0;" parent="1" vertex="1">
                    <mxGeometry x="274.1" y="-998" width="40" height="10" as="geometry"/>
                </mxCell>
                <mxCell id="150" value="&lt;font style=&quot;font-size: 8px&quot;&gt;Email&lt;/font&gt;" style="text;html=1;strokeColor=none;fillColor=none;align=center;verticalAlign=middle;whiteSpace=wrap;rounded=0;" parent="1" vertex="1">
                    <mxGeometry x="276.1" y="-985" width="40" height="10" as="geometry"/>
                </mxCell>
                <mxCell id="151" value="&lt;span style=&quot;font-size: 8px&quot;&gt;Pass&lt;/span&gt;" style="text;html=1;strokeColor=none;fillColor=none;align=center;verticalAlign=middle;whiteSpace=wrap;rounded=0;" parent="1" vertex="1">
                    <mxGeometry x="276.1" y="-975" width="40" height="10" as="geometry"/>
                </mxCell>
                <mxCell id="152" value="&lt;span style=&quot;font-size: 8px&quot;&gt;Name&lt;/span&gt;" style="text;html=1;strokeColor=none;fillColor=none;align=center;verticalAlign=middle;whiteSpace=wrap;rounded=0;" parent="1" vertex="1">
                    <mxGeometry x="276.59000000000003" y="-965" width="40" height="10" as="geometry"/>
                </mxCell>
                <mxCell id="153" value="&lt;span style=&quot;font-size: 8px&quot;&gt;Adress&lt;/span&gt;" style="text;html=1;strokeColor=none;fillColor=none;align=center;verticalAlign=middle;whiteSpace=wrap;rounded=0;" parent="1" vertex="1">
                    <mxGeometry x="276.59000000000003" y="-955" width="40" height="10" as="geometry"/>
                </mxCell>
                <mxCell id="154" value="&lt;span style=&quot;font-size: 8px&quot;&gt;Num&lt;/span&gt;" style="text;html=1;strokeColor=none;fillColor=none;align=center;verticalAlign=middle;whiteSpace=wrap;rounded=0;" parent="1" vertex="1">
                    <mxGeometry x="276.1" y="-945" width="40" height="10" as="geometry"/>
                </mxCell>
                <mxCell id="155" value="&lt;span style=&quot;font-size: 8px&quot;&gt;Role&lt;/span&gt;" style="text;html=1;strokeColor=none;fillColor=none;align=center;verticalAlign=middle;whiteSpace=wrap;rounded=0;" parent="1" vertex="1">
                    <mxGeometry x="276.59000000000003" y="-935" width="40" height="10" as="geometry"/>
                </mxCell>
                <mxCell id="156" value="" style="whiteSpace=wrap;html=1;aspect=fixed;" parent="1" vertex="1">
                    <mxGeometry x="504.56" y="-1020" width="100" height="100" as="geometry"/>
                </mxCell>
                <mxCell id="157" value="Produit" style="text;html=1;strokeColor=none;fillColor=none;align=center;verticalAlign=middle;whiteSpace=wrap;rounded=0;" parent="1" vertex="1">
                    <mxGeometry x="531.56" y="-1018" width="40" height="20" as="geometry"/>
                </mxCell>
                <mxCell id="158" value="" style="endArrow=none;html=1;entryX=1.01;entryY=0.197;entryDx=0;entryDy=0;exitX=-0.011;exitY=0.189;exitDx=0;exitDy=0;entryPerimeter=0;exitPerimeter=0;" parent="1" source="156" target="156" edge="1">
                    <mxGeometry width="50" height="50" relative="1" as="geometry">
                        <mxPoint x="640.05" y="-960" as="sourcePoint"/>
                        <mxPoint x="690.05" y="-1010" as="targetPoint"/>
                        <Array as="points"/>
                    </mxGeometry>
                </mxCell>
                <mxCell id="159" value="&lt;span style=&quot;font-size: 8px&quot;&gt;Id_produit&lt;/span&gt;" style="text;html=1;strokeColor=none;fillColor=none;align=center;verticalAlign=middle;whiteSpace=wrap;rounded=0;" parent="1" vertex="1">
                    <mxGeometry x="527.56" y="-998" width="40" height="10" as="geometry"/>
                </mxCell>
                <mxCell id="160" value="&lt;font style=&quot;font-size: 8px&quot;&gt;Name_prod&lt;/font&gt;" style="text;html=1;strokeColor=none;fillColor=none;align=center;verticalAlign=middle;whiteSpace=wrap;rounded=0;" parent="1" vertex="1">
                    <mxGeometry x="529.56" y="-985" width="40" height="10" as="geometry"/>
                </mxCell>
                <mxCell id="161" value="&lt;span style=&quot;font-size: 8px&quot;&gt;Title_prod&lt;/span&gt;" style="text;html=1;strokeColor=none;fillColor=none;align=center;verticalAlign=middle;whiteSpace=wrap;rounded=0;" parent="1" vertex="1">
                    <mxGeometry x="529.56" y="-975" width="40" height="10" as="geometry"/>
                </mxCell>
                <mxCell id="162" value="&lt;span style=&quot;font-size: 8px&quot;&gt;Image&lt;/span&gt;" style="text;html=1;strokeColor=none;fillColor=none;align=center;verticalAlign=middle;whiteSpace=wrap;rounded=0;" parent="1" vertex="1">
                    <mxGeometry x="530.05" y="-965" width="40" height="10" as="geometry"/>
                </mxCell>
                <mxCell id="165" value="&lt;span style=&quot;font-size: 8px&quot;&gt;Prix&lt;/span&gt;" style="text;html=1;strokeColor=none;fillColor=none;align=center;verticalAlign=middle;whiteSpace=wrap;rounded=0;" parent="1" vertex="1">
                    <mxGeometry x="531.56" y="-952" width="40" height="10" as="geometry"/>
                </mxCell>
                <mxCell id="178" value="" style="endArrow=none;html=1;entryX=0;entryY=0.5;entryDx=0;entryDy=0;exitX=1;exitY=0.5;exitDx=0;exitDy=0;" parent="1" source="146" target="156" edge="1">
                    <mxGeometry width="50" height="50" relative="1" as="geometry">
                        <mxPoint x="430" y="-890" as="sourcePoint"/>
                        <mxPoint x="480" y="-940" as="targetPoint"/>
                    </mxGeometry>
                </mxCell>
                <mxCell id="180" value="" style="ellipse;whiteSpace=wrap;html=1;" parent="1" vertex="1">
                    <mxGeometry x="395" y="-987.5" width="60" height="35" as="geometry"/>
                </mxCell>
                <mxCell id="194" value="Commande" style="text;html=1;strokeColor=none;fillColor=none;align=center;verticalAlign=middle;whiteSpace=wrap;rounded=0;" parent="1" vertex="1">
                    <mxGeometry x="390" y="-980" width="70" height="20" as="geometry"/>
                </mxCell>
                <mxCell id="196" value="" style="endArrow=none;html=1;entryX=0.5;entryY=1;entryDx=0;entryDy=0;exitX=0.5;exitY=1;exitDx=0;exitDy=0;" parent="1" source="146" target="156" edge="1">
                    <mxGeometry width="50" height="50" relative="1" as="geometry">
                        <mxPoint x="605.1100000000004" y="-798.8000000000002" as="sourcePoint"/>
                        <mxPoint x="540" y="-870" as="targetPoint"/>
                        <Array as="points">
                            <mxPoint x="301" y="-790"/>
                            <mxPoint x="410" y="-790"/>
                            <mxPoint x="555" y="-790"/>
                        </Array>
                    </mxGeometry>
                </mxCell>
                <mxCell id="197" value="" style="ellipse;whiteSpace=wrap;html=1;" parent="1" vertex="1">
                    <mxGeometry x="408.1" y="-813" width="60" height="35" as="geometry"/>
                </mxCell>
                <mxCell id="198" value="&lt;font style=&quot;font-size: 9px&quot;&gt;Ajouter&lt;/font&gt;" style="text;html=1;strokeColor=none;fillColor=none;align=center;verticalAlign=middle;whiteSpace=wrap;rounded=0;" parent="1" vertex="1">
                    <mxGeometry x="403.1" y="-806" width="70" height="20" as="geometry"/>
                </mxCell>
                <mxCell id="200" value="" style="whiteSpace=wrap;html=1;aspect=fixed;" parent="1" vertex="1">
                    <mxGeometry x="391.1" y="-1160" width="100" height="100" as="geometry"/>
                </mxCell>
                <mxCell id="201" value="Message" style="text;html=1;strokeColor=none;fillColor=none;align=center;verticalAlign=middle;whiteSpace=wrap;rounded=0;" parent="1" vertex="1">
                    <mxGeometry x="418.1" y="-1158" width="40" height="18" as="geometry"/>
                </mxCell>
                <mxCell id="202" value="" style="endArrow=none;html=1;entryX=1.01;entryY=0.197;entryDx=0;entryDy=0;exitX=-0.011;exitY=0.189;exitDx=0;exitDy=0;entryPerimeter=0;exitPerimeter=0;" parent="1" source="200" target="200" edge="1">
                    <mxGeometry width="50" height="50" relative="1" as="geometry">
                        <mxPoint x="526.59" y="-1100" as="sourcePoint"/>
                        <mxPoint x="576.59" y="-1150" as="targetPoint"/>
                        <Array as="points"/>
                    </mxGeometry>
                </mxCell>
                <mxCell id="203" value="&lt;font style=&quot;font-size: 8px&quot;&gt;Id_message&lt;/font&gt;" style="text;html=1;strokeColor=none;fillColor=none;align=center;verticalAlign=middle;whiteSpace=wrap;rounded=0;" parent="1" vertex="1">
                    <mxGeometry x="414.1" y="-1138" width="40" height="10" as="geometry"/>
                </mxCell>
                <mxCell id="204" value="&lt;font style=&quot;font-size: 8px&quot;&gt;Sujet&lt;/font&gt;" style="text;html=1;strokeColor=none;fillColor=none;align=center;verticalAlign=middle;whiteSpace=wrap;rounded=0;" parent="1" vertex="1">
                    <mxGeometry x="416.1" y="-1125" width="40" height="10" as="geometry"/>
                </mxCell>
                <mxCell id="205" value="&lt;span style=&quot;font-size: 8px&quot;&gt;message&lt;/span&gt;" style="text;html=1;strokeColor=none;fillColor=none;align=center;verticalAlign=middle;whiteSpace=wrap;rounded=0;" parent="1" vertex="1">
                    <mxGeometry x="416.1" y="-1115" width="40" height="10" as="geometry"/>
                </mxCell>
                <mxCell id="210" value="" style="endArrow=none;html=1;entryX=0.5;entryY=0;entryDx=0;entryDy=0;exitX=0;exitY=0.5;exitDx=0;exitDy=0;" parent="1" source="200" target="146" edge="1">
                    <mxGeometry width="50" height="50" relative="1" as="geometry">
                        <mxPoint x="440" y="-990" as="sourcePoint"/>
                        <mxPoint x="490" y="-1040" as="targetPoint"/>
                        <Array as="points">
                            <mxPoint x="301" y="-1110"/>
                        </Array>
                    </mxGeometry>
                </mxCell>
                <mxCell id="211" value="" style="ellipse;whiteSpace=wrap;html=1;" parent="1" vertex="1">
                    <mxGeometry x="270" y="-1125" width="70" height="40" as="geometry"/>
                </mxCell>
                <mxCell id="212" value="&lt;font style=&quot;font-size: 9px&quot;&gt;Envoye&lt;/font&gt;" style="text;html=1;strokeColor=none;fillColor=none;align=center;verticalAlign=middle;whiteSpace=wrap;rounded=0;" parent="1" vertex="1">
                    <mxGeometry x="270" y="-1115" width="70" height="20" as="geometry"/>
                </mxCell>
                <mxCell id="213" value="1.N" style="text;html=1;strokeColor=none;fillColor=none;align=center;verticalAlign=middle;whiteSpace=wrap;rounded=0;" parent="1" vertex="1">
                    <mxGeometry x="300" y="-1040" width="40" height="20" as="geometry"/>
                </mxCell>
                <mxCell id="214" value="1.1" style="text;html=1;strokeColor=none;fillColor=none;align=center;verticalAlign=middle;whiteSpace=wrap;rounded=0;" parent="1" vertex="1">
                    <mxGeometry x="351.1" y="-1130" width="40" height="20" as="geometry"/>
                </mxCell>
                <mxCell id="215" value="1.N" style="text;html=1;strokeColor=none;fillColor=none;align=center;verticalAlign=middle;whiteSpace=wrap;rounded=0;" parent="1" vertex="1">
                    <mxGeometry x="308.05" y="-910" width="40" height="20" as="geometry"/>
                </mxCell>
                <mxCell id="216" value="1.1" style="text;html=1;strokeColor=none;fillColor=none;align=center;verticalAlign=middle;whiteSpace=wrap;rounded=0;" parent="1" vertex="1">
                    <mxGeometry x="504.56" y="-910" width="40" height="20" as="geometry"/>
                </mxCell>
                <mxCell id="412" value="1.N" style="text;html=1;strokeColor=none;fillColor=none;align=center;verticalAlign=middle;whiteSpace=wrap;rounded=0;" parent="1" vertex="1">
                    <mxGeometry x="348.04999999999995" y="-970" width="40" height="20" as="geometry"/>
                </mxCell>
                <mxCell id="413" value="1.N" style="text;html=1;strokeColor=none;fillColor=none;align=center;verticalAlign=middle;whiteSpace=wrap;rounded=0;" parent="1" vertex="1">
                    <mxGeometry x="461.53999999999996" y="-990" width="40" height="20" as="geometry"/>
                </mxCell>
                <mxCell id="415" value="&lt;span style=&quot;font-size: 20px&quot;&gt;MCD&lt;/span&gt;" style="text;html=1;strokeColor=none;fillColor=none;align=center;verticalAlign=middle;whiteSpace=wrap;rounded=0;" parent="1" vertex="1">
                    <mxGeometry x="400.04999999999995" y="-1200" width="70" height="20" as="geometry"/>
                </mxCell>
                <mxCell id="416" value="" style="whiteSpace=wrap;html=1;aspect=fixed;" parent="1" vertex="1">
                    <mxGeometry x="920.69" y="-1030" width="100" height="100" as="geometry"/>
                </mxCell>
                <mxCell id="417" value="User" style="text;html=1;strokeColor=none;fillColor=none;align=center;verticalAlign=middle;whiteSpace=wrap;rounded=0;" parent="1" vertex="1">
                    <mxGeometry x="947.69" y="-1028" width="40" height="20" as="geometry"/>
                </mxCell>
                <mxCell id="418" value="" style="endArrow=none;html=1;entryX=1.01;entryY=0.197;entryDx=0;entryDy=0;exitX=-0.011;exitY=0.189;exitDx=0;exitDy=0;entryPerimeter=0;exitPerimeter=0;" parent="1" source="416" target="416" edge="1">
                    <mxGeometry width="50" height="50" relative="1" as="geometry">
                        <mxPoint x="1056.18" y="-970" as="sourcePoint"/>
                        <mxPoint x="1106.18" y="-1020" as="targetPoint"/>
                        <Array as="points"/>
                    </mxGeometry>
                </mxCell>
                <mxCell id="419" value="&lt;font style=&quot;font-size: 8px&quot;&gt;User_id&lt;/font&gt;" style="text;html=1;strokeColor=none;fillColor=none;align=center;verticalAlign=middle;whiteSpace=wrap;rounded=0;" parent="1" vertex="1">
                    <mxGeometry x="943.69" y="-1008" width="40" height="10" as="geometry"/>
                </mxCell>
                <mxCell id="420" value="&lt;font style=&quot;font-size: 8px&quot;&gt;Email&lt;/font&gt;" style="text;html=1;strokeColor=none;fillColor=none;align=center;verticalAlign=middle;whiteSpace=wrap;rounded=0;" parent="1" vertex="1">
                    <mxGeometry x="945.69" y="-995" width="40" height="10" as="geometry"/>
                </mxCell>
                <mxCell id="421" value="&lt;span style=&quot;font-size: 8px&quot;&gt;Pass&lt;/span&gt;" style="text;html=1;strokeColor=none;fillColor=none;align=center;verticalAlign=middle;whiteSpace=wrap;rounded=0;" parent="1" vertex="1">
                    <mxGeometry x="945.69" y="-985" width="40" height="10" as="geometry"/>
                </mxCell>
                <mxCell id="422" value="&lt;span style=&quot;font-size: 8px&quot;&gt;Name&lt;/span&gt;" style="text;html=1;strokeColor=none;fillColor=none;align=center;verticalAlign=middle;whiteSpace=wrap;rounded=0;" parent="1" vertex="1">
                    <mxGeometry x="946.1800000000001" y="-975" width="40" height="10" as="geometry"/>
                </mxCell>
                <mxCell id="423" value="&lt;span style=&quot;font-size: 8px&quot;&gt;Adress&lt;/span&gt;" style="text;html=1;strokeColor=none;fillColor=none;align=center;verticalAlign=middle;whiteSpace=wrap;rounded=0;" parent="1" vertex="1">
                    <mxGeometry x="946.1800000000001" y="-965" width="40" height="10" as="geometry"/>
                </mxCell>
                <mxCell id="424" value="&lt;span style=&quot;font-size: 8px&quot;&gt;Num&lt;/span&gt;" style="text;html=1;strokeColor=none;fillColor=none;align=center;verticalAlign=middle;whiteSpace=wrap;rounded=0;" parent="1" vertex="1">
                    <mxGeometry x="945.69" y="-955" width="40" height="10" as="geometry"/>
                </mxCell>
                <mxCell id="425" value="&lt;span style=&quot;font-size: 8px&quot;&gt;Role&lt;/span&gt;" style="text;html=1;strokeColor=none;fillColor=none;align=center;verticalAlign=middle;whiteSpace=wrap;rounded=0;" parent="1" vertex="1">
                    <mxGeometry x="946.1800000000001" y="-945" width="40" height="10" as="geometry"/>
                </mxCell>
                <mxCell id="426" value="" style="whiteSpace=wrap;html=1;aspect=fixed;" parent="1" vertex="1">
                    <mxGeometry x="1174.15" y="-1030" width="100" height="100" as="geometry"/>
                </mxCell>
                <mxCell id="427" value="Produit" style="text;html=1;strokeColor=none;fillColor=none;align=center;verticalAlign=middle;whiteSpace=wrap;rounded=0;" parent="1" vertex="1">
                    <mxGeometry x="1201.15" y="-1028" width="40" height="20" as="geometry"/>
                </mxCell>
                <mxCell id="428" value="" style="endArrow=none;html=1;entryX=1.01;entryY=0.197;entryDx=0;entryDy=0;exitX=-0.011;exitY=0.189;exitDx=0;exitDy=0;entryPerimeter=0;exitPerimeter=0;" parent="1" source="426" target="426" edge="1">
                    <mxGeometry width="50" height="50" relative="1" as="geometry">
                        <mxPoint x="1309.6399999999999" y="-970" as="sourcePoint"/>
                        <mxPoint x="1359.6399999999999" y="-1020" as="targetPoint"/>
                        <Array as="points"/>
                    </mxGeometry>
                </mxCell>
                <mxCell id="429" value="&lt;span style=&quot;font-size: 8px&quot;&gt;Id_produit&lt;/span&gt;" style="text;html=1;strokeColor=none;fillColor=none;align=center;verticalAlign=middle;whiteSpace=wrap;rounded=0;" parent="1" vertex="1">
                    <mxGeometry x="1197.15" y="-1008" width="40" height="10" as="geometry"/>
                </mxCell>
                <mxCell id="430" value="&lt;font style=&quot;font-size: 8px&quot;&gt;Name_prod&lt;/font&gt;" style="text;html=1;strokeColor=none;fillColor=none;align=center;verticalAlign=middle;whiteSpace=wrap;rounded=0;" parent="1" vertex="1">
                    <mxGeometry x="1199.15" y="-995" width="40" height="10" as="geometry"/>
                </mxCell>
                <mxCell id="431" value="&lt;span style=&quot;font-size: 8px&quot;&gt;Title_prod&lt;/span&gt;" style="text;html=1;strokeColor=none;fillColor=none;align=center;verticalAlign=middle;whiteSpace=wrap;rounded=0;" parent="1" vertex="1">
                    <mxGeometry x="1199.15" y="-985" width="40" height="10" as="geometry"/>
                </mxCell>
                <mxCell id="432" value="&lt;span style=&quot;font-size: 8px&quot;&gt;Image&lt;/span&gt;" style="text;html=1;strokeColor=none;fillColor=none;align=center;verticalAlign=middle;whiteSpace=wrap;rounded=0;" parent="1" vertex="1">
                    <mxGeometry x="1199.6399999999999" y="-975" width="40" height="10" as="geometry"/>
                </mxCell>
                <mxCell id="433" value="&lt;span style=&quot;font-size: 8px&quot;&gt;Prix&lt;/span&gt;" style="text;html=1;strokeColor=none;fillColor=none;align=center;verticalAlign=middle;whiteSpace=wrap;rounded=0;" parent="1" vertex="1">
                    <mxGeometry x="1201.15" y="-962" width="40" height="10" as="geometry"/>
                </mxCell>
                <mxCell id="445" value="" style="endArrow=none;html=1;entryX=0.75;entryY=1;entryDx=0;entryDy=0;exitX=0.25;exitY=1;exitDx=0;exitDy=0;" parent="1" source="416" target="426" edge="1">
                    <mxGeometry width="50" height="50" relative="1" as="geometry">
                        <mxPoint x="1274.6999999999998" y="-808.7999999999997" as="sourcePoint"/>
                        <mxPoint x="1209.5900000000001" y="-880" as="targetPoint"/>
                        <Array as="points">
                            <mxPoint x="946" y="-720"/>
                            <mxPoint x="1249" y="-720"/>
                        </Array>
                    </mxGeometry>
                </mxCell>
                <mxCell id="448" value="" style="whiteSpace=wrap;html=1;aspect=fixed;" parent="1" vertex="1">
                    <mxGeometry x="1060.69" y="-1170" width="100" height="100" as="geometry"/>
                </mxCell>
                <mxCell id="449" value="Message" style="text;html=1;strokeColor=none;fillColor=none;align=center;verticalAlign=middle;whiteSpace=wrap;rounded=0;" parent="1" vertex="1">
                    <mxGeometry x="1087.69" y="-1168" width="40" height="18" as="geometry"/>
                </mxCell>
                <mxCell id="450" value="" style="endArrow=none;html=1;entryX=1.01;entryY=0.197;entryDx=0;entryDy=0;exitX=-0.011;exitY=0.189;exitDx=0;exitDy=0;entryPerimeter=0;exitPerimeter=0;" parent="1" source="448" target="448" edge="1">
                    <mxGeometry width="50" height="50" relative="1" as="geometry">
                        <mxPoint x="1196.18" y="-1110" as="sourcePoint"/>
                        <mxPoint x="1246.18" y="-1160" as="targetPoint"/>
                        <Array as="points"/>
                    </mxGeometry>
                </mxCell>
                <mxCell id="451" value="&lt;font style=&quot;font-size: 8px&quot;&gt;Id_message&lt;/font&gt;" style="text;html=1;strokeColor=none;fillColor=none;align=center;verticalAlign=middle;whiteSpace=wrap;rounded=0;" parent="1" vertex="1">
                    <mxGeometry x="1083.69" y="-1148" width="40" height="10" as="geometry"/>
                </mxCell>
                <mxCell id="452" value="&lt;font style=&quot;font-size: 8px&quot;&gt;Sujet&lt;/font&gt;" style="text;html=1;strokeColor=none;fillColor=none;align=center;verticalAlign=middle;whiteSpace=wrap;rounded=0;" parent="1" vertex="1">
                    <mxGeometry x="1085.69" y="-1135" width="40" height="10" as="geometry"/>
                </mxCell>
                <mxCell id="453" value="&lt;span style=&quot;font-size: 8px&quot;&gt;message&lt;/span&gt;" style="text;html=1;strokeColor=none;fillColor=none;align=center;verticalAlign=middle;whiteSpace=wrap;rounded=0;" parent="1" vertex="1">
                    <mxGeometry x="1085.69" y="-1125" width="40" height="10" as="geometry"/>
                </mxCell>
                <mxCell id="454" value="" style="endArrow=none;html=1;entryX=0.5;entryY=0;entryDx=0;entryDy=0;exitX=0;exitY=0.5;exitDx=0;exitDy=0;" parent="1" source="448" target="416" edge="1">
                    <mxGeometry width="50" height="50" relative="1" as="geometry">
                        <mxPoint x="1109.5900000000001" y="-1000" as="sourcePoint"/>
                        <mxPoint x="1159.5900000000001" y="-1050" as="targetPoint"/>
                        <Array as="points">
                            <mxPoint x="970.59" y="-1120"/>
                        </Array>
                    </mxGeometry>
                </mxCell>
                <mxCell id="463" value="&lt;span style=&quot;font-size: 20px&quot;&gt;MLD&lt;/span&gt;" style="text;html=1;strokeColor=none;fillColor=none;align=center;verticalAlign=middle;whiteSpace=wrap;rounded=0;" parent="1" vertex="1">
                    <mxGeometry x="1069.6399999999999" y="-1210" width="70" height="20" as="geometry"/>
                </mxCell>
                <mxCell id="464" value="" style="whiteSpace=wrap;html=1;aspect=fixed;" parent="1" vertex="1">
                    <mxGeometry x="1053.74" y="-880" width="100" height="100" as="geometry"/>
                </mxCell>
                <mxCell id="465" value="Commande" style="text;html=1;strokeColor=none;fillColor=none;align=center;verticalAlign=middle;whiteSpace=wrap;rounded=0;" parent="1" vertex="1">
                    <mxGeometry x="1080.74" y="-878" width="40" height="20" as="geometry"/>
                </mxCell>
                <mxCell id="466" value="" style="endArrow=none;html=1;entryX=1.01;entryY=0.197;entryDx=0;entryDy=0;exitX=-0.011;exitY=0.189;exitDx=0;exitDy=0;entryPerimeter=0;exitPerimeter=0;" parent="1" source="464" target="464" edge="1">
                    <mxGeometry width="50" height="50" relative="1" as="geometry">
                        <mxPoint x="1189.23" y="-820" as="sourcePoint"/>
                        <mxPoint x="1239.23" y="-870" as="targetPoint"/>
                        <Array as="points"/>
                    </mxGeometry>
                </mxCell>
                <mxCell id="467" value="&lt;span style=&quot;font-size: 8px&quot;&gt;ID_commande&lt;/span&gt;" style="text;html=1;strokeColor=none;fillColor=none;align=center;verticalAlign=middle;whiteSpace=wrap;rounded=0;" parent="1" vertex="1">
                    <mxGeometry x="1082.6399999999999" y="-858" width="34.1" height="10" as="geometry"/>
                </mxCell>
                <mxCell id="468" value="&lt;font style=&quot;font-size: 10px&quot;&gt;#User_id&lt;/font&gt;" style="text;html=1;strokeColor=none;fillColor=none;align=center;verticalAlign=middle;whiteSpace=wrap;rounded=0;" parent="1" vertex="1">
                    <mxGeometry x="1078.74" y="-845" width="40" height="10" as="geometry"/>
                </mxCell>
                <mxCell id="469" value="&lt;font style=&quot;font-size: 10px&quot;&gt;#id_produit&lt;/font&gt;" style="text;html=1;strokeColor=none;fillColor=none;align=center;verticalAlign=middle;whiteSpace=wrap;rounded=0;" parent="1" vertex="1">
                    <mxGeometry x="1079.23" y="-825" width="40" height="10" as="geometry"/>
                </mxCell>
                <mxCell id="470" value="" style="endArrow=none;html=1;entryX=0.5;entryY=1;entryDx=0;entryDy=0;exitX=1;exitY=0.5;exitDx=0;exitDy=0;" parent="1" source="464" target="426" edge="1">
                    <mxGeometry width="50" height="50" relative="1" as="geometry">
                        <mxPoint x="1100" y="-810" as="sourcePoint"/>
                        <mxPoint x="1150" y="-860" as="targetPoint"/>
                        <Array as="points">
                            <mxPoint x="1224" y="-830"/>
                        </Array>
                    </mxGeometry>
                </mxCell>
                <mxCell id="471" value="" style="endArrow=none;html=1;entryX=0.5;entryY=1;entryDx=0;entryDy=0;exitX=0;exitY=0.5;exitDx=0;exitDy=0;" parent="1" source="464" target="416" edge="1">
                    <mxGeometry width="50" height="50" relative="1" as="geometry">
                        <mxPoint x="1100" y="-810" as="sourcePoint"/>
                        <mxPoint x="1150" y="-860" as="targetPoint"/>
                        <Array as="points">
                            <mxPoint x="971" y="-830"/>
                        </Array>
                    </mxGeometry>
                </mxCell>
                <mxCell id="472" value="" style="shape=flexArrow;endArrow=classic;html=1;" parent="1" edge="1">
                    <mxGeometry width="50" height="50" relative="1" as="geometry">
                        <mxPoint x="780" y="-930" as="sourcePoint"/>
                        <mxPoint x="890" y="-930" as="targetPoint"/>
                    </mxGeometry>
                </mxCell>
                <mxCell id="474" value="Natuer" style="text;html=1;strokeColor=none;fillColor=none;align=center;verticalAlign=middle;whiteSpace=wrap;rounded=0;" parent="1" vertex="1">
                    <mxGeometry x="987.69" y="-2160" width="40" height="20" as="geometry"/>
                </mxCell>
                <mxCell id="475" value="" style="endArrow=none;html=1;" parent="1" edge="1">
                    <mxGeometry width="50" height="50" relative="1" as="geometry">
                        <mxPoint x="1000" y="-1960" as="sourcePoint"/>
                        <mxPoint x="1000.02" y="-2123" as="targetPoint"/>
                    </mxGeometry>
                </mxCell>
                <mxCell id="476" value="signification" style="text;html=1;strokeColor=none;fillColor=none;align=center;verticalAlign=middle;whiteSpace=wrap;rounded=0;" parent="1" vertex="1">
                    <mxGeometry x="1125.69" y="-2160" width="40" height="20" as="geometry"/>
                </mxCell>
                <mxCell id="477" value="Number&amp;nbsp;client" style="text;html=1;strokeColor=none;fillColor=none;align=center;verticalAlign=middle;whiteSpace=wrap;rounded=0;" parent="1" vertex="1">
                    <mxGeometry x="1134.15" y="-2114" width="40" height="20" as="geometry"/>
                </mxCell>
                <mxCell id="478" value="Name de&amp;nbsp;client&amp;nbsp;&lt;span style=&quot;color: rgba(0 , 0 , 0 , 0) ; font-family: monospace ; font-size: 0px&quot;&gt;%3CmxGraphModel%3E%3Croot%3E%3CmxCell%20id%3D%220%22%2F%3E%3CmxCell%20id%3D%221%22%20parent%3D%220%22%2F%3E%3CmxCell%20id%3D%222%22%20value%3D%22Number%26amp%3Bnbsp%3Bclient%22%20style%3D%22text%3Bhtml%3D1%3BstrokeColor%3Dnone%3BfillColor%3Dnone%3Balign%3Dcenter%3BverticalAlign%3Dmiddle%3BwhiteSpace%3Dwrap%3Brounded%3D0%3B%22%20vertex%3D%221%22%20parent%3D%221%22%3E%3CmxGeometry%20x%3D%221134.15%22%20y%3D%22-2114%22%20width%3D%2240%22%20height%3D%2220%22%20as%3D%22geometry%22%2F%3E%3C%2FmxCell%3E%3C%2Froot%3E%3C%2FmxGraphModel%3E&lt;/span&gt;" style="text;html=1;strokeColor=none;fillColor=none;align=center;verticalAlign=middle;whiteSpace=wrap;rounded=0;" parent="1" vertex="1">
                    <mxGeometry x="1104.15" y="-2090" width="100" height="20" as="geometry"/>
                </mxCell>
                <mxCell id="479" value="adress mail" style="text;html=1;strokeColor=none;fillColor=none;align=center;verticalAlign=middle;whiteSpace=wrap;rounded=0;" parent="1" vertex="1">
                    <mxGeometry x="1104.15" y="-2070" width="100" height="20" as="geometry"/>
                </mxCell>
                <mxCell id="480" value="mot de pass" style="text;html=1;strokeColor=none;fillColor=none;align=center;verticalAlign=middle;whiteSpace=wrap;rounded=0;" parent="1" vertex="1">
                    <mxGeometry x="1104.15" y="-2049" width="100" height="20" as="geometry"/>
                </mxCell>
                <mxCell id="481" value="adress de client" style="text;html=1;strokeColor=none;fillColor=none;align=center;verticalAlign=middle;whiteSpace=wrap;rounded=0;" parent="1" vertex="1">
                    <mxGeometry x="1104.15" y="-2029" width="100" height="20" as="geometry"/>
                </mxCell>
                <mxCell id="482" value="numéro de téléphone" style="text;html=1;strokeColor=none;fillColor=none;align=center;verticalAlign=middle;whiteSpace=wrap;rounded=0;" parent="1" vertex="1">
                    <mxGeometry x="1087" y="-2009" width="130" height="20" as="geometry"/>
                </mxCell>
                <mxCell id="483" value="255" style="text;html=1;align=center;verticalAlign=middle;whiteSpace=wrap;rounded=0;strokeWidth=1;perimeterSpacing=0;" parent="1" vertex="1">
                    <mxGeometry x="842.2" y="-2039" width="40" height="40" as="geometry"/>
                </mxCell>
                <mxCell id="484" value="30" style="text;html=1;align=center;verticalAlign=middle;whiteSpace=wrap;rounded=0;strokeWidth=1;perimeterSpacing=0;" parent="1" vertex="1">
                    <mxGeometry x="842.2" y="-2019" width="40" height="40" as="geometry"/>
                </mxCell>
                <mxCell id="485" value="&lt;span style=&quot;color: rgb(220 , 221 , 222) ; font-family: &amp;#34;whitney&amp;#34; , &amp;#34;helvetica neue&amp;#34; , &amp;#34;helvetica&amp;#34; , &amp;#34;arial&amp;#34; , sans-serif ; font-size: 16px ; text-align: left ; background-color: rgba(4 , 4 , 5 , 0.07)&quot;&gt;Calcule&lt;br&gt;&lt;/span&gt;" style="text;html=1;align=center;verticalAlign=middle;whiteSpace=wrap;rounded=0;strokeWidth=1;perimeterSpacing=0;" parent="1" vertex="1">
                    <mxGeometry x="1020.69" y="-2130" width="40" height="30" as="geometry"/>
                </mxCell>
                <mxCell id="486" value="&lt;span style=&quot;color: rgb(220 , 221 , 222) ; font-family: &amp;#34;whitney&amp;#34; , &amp;#34;helvetica neue&amp;#34; , &amp;#34;helvetica&amp;#34; , &amp;#34;arial&amp;#34; , sans-serif ; text-align: left ; background-color: rgba(4 , 4 , 5 , 0.07)&quot;&gt;&lt;font style=&quot;font-size: 12px&quot;&gt;X&lt;/font&gt;&lt;br&gt;&lt;/span&gt;" style="text;html=1;align=center;verticalAlign=middle;whiteSpace=wrap;rounded=0;strokeWidth=1;perimeterSpacing=0;opacity=90;" parent="1" vertex="1">
                    <mxGeometry x="929.09" y="-2104" width="40" height="15" as="geometry"/>
                </mxCell>
                <mxCell id="487" value="&lt;span style=&quot;color: rgb(220 , 221 , 222) ; font-family: &amp;#34;whitney&amp;#34; , &amp;#34;helvetica neue&amp;#34; , &amp;#34;helvetica&amp;#34; , &amp;#34;arial&amp;#34; , sans-serif ; text-align: left ; background-color: rgba(4 , 4 , 5 , 0.07)&quot;&gt;&lt;font style=&quot;font-size: 12px&quot;&gt;X&lt;/font&gt;&lt;br&gt;&lt;/span&gt;" style="text;html=1;align=center;verticalAlign=middle;whiteSpace=wrap;rounded=0;strokeWidth=1;perimeterSpacing=0;opacity=90;" parent="1" vertex="1">
                    <mxGeometry x="929.09" y="-2087.5" width="40" height="15" as="geometry"/>
                </mxCell>
                <mxCell id="488" value="&lt;span style=&quot;color: rgb(220 , 221 , 222) ; font-family: &amp;#34;whitney&amp;#34; , &amp;#34;helvetica neue&amp;#34; , &amp;#34;helvetica&amp;#34; , &amp;#34;arial&amp;#34; , sans-serif ; text-align: left ; background-color: rgba(4 , 4 , 5 , 0.07)&quot;&gt;&lt;font style=&quot;font-size: 12px&quot;&gt;X&lt;/font&gt;&lt;br&gt;&lt;/span&gt;" style="text;html=1;align=center;verticalAlign=middle;whiteSpace=wrap;rounded=0;strokeWidth=1;perimeterSpacing=0;opacity=90;" parent="1" vertex="1">
                    <mxGeometry x="929.09" y="-2067.5" width="40" height="15" as="geometry"/>
                </mxCell>
                <mxCell id="489" value="&lt;span style=&quot;color: rgb(220 , 221 , 222) ; font-family: &amp;#34;whitney&amp;#34; , &amp;#34;helvetica neue&amp;#34; , &amp;#34;helvetica&amp;#34; , &amp;#34;arial&amp;#34; , sans-serif ; text-align: left ; background-color: rgba(4 , 4 , 5 , 0.07)&quot;&gt;&lt;font style=&quot;font-size: 12px&quot;&gt;X&lt;/font&gt;&lt;br&gt;&lt;/span&gt;" style="text;html=1;align=center;verticalAlign=middle;whiteSpace=wrap;rounded=0;strokeWidth=1;perimeterSpacing=0;opacity=90;" parent="1" vertex="1">
                    <mxGeometry x="929.09" y="-2046.5" width="40" height="15" as="geometry"/>
                </mxCell>
                <mxCell id="490" value="&lt;span style=&quot;color: rgb(220 , 221 , 222) ; font-family: &amp;#34;whitney&amp;#34; , &amp;#34;helvetica neue&amp;#34; , &amp;#34;helvetica&amp;#34; , &amp;#34;arial&amp;#34; , sans-serif ; text-align: left ; background-color: rgba(4 , 4 , 5 , 0.07)&quot;&gt;&lt;font style=&quot;font-size: 12px&quot;&gt;X&lt;/font&gt;&lt;br&gt;&lt;/span&gt;" style="text;html=1;align=center;verticalAlign=middle;whiteSpace=wrap;rounded=0;strokeWidth=1;perimeterSpacing=0;opacity=90;" parent="1" vertex="1">
                    <mxGeometry x="929.09" y="-2026.5" width="40" height="15" as="geometry"/>
                </mxCell>
                <mxCell id="491" value="&lt;span style=&quot;color: rgb(220 , 221 , 222) ; font-family: &amp;#34;whitney&amp;#34; , &amp;#34;helvetica neue&amp;#34; , &amp;#34;helvetica&amp;#34; , &amp;#34;arial&amp;#34; , sans-serif ; text-align: left ; background-color: rgba(4 , 4 , 5 , 0.07)&quot;&gt;&lt;font style=&quot;font-size: 12px&quot;&gt;X&lt;/font&gt;&lt;br&gt;&lt;/span&gt;" style="text;html=1;align=center;verticalAlign=middle;whiteSpace=wrap;rounded=0;strokeWidth=1;perimeterSpacing=0;opacity=90;" parent="1" vertex="1">
                    <mxGeometry x="929.09" y="-2008.5" width="40" height="15" as="geometry"/>
                </mxCell>
                <mxCell id="492" value="" style="rounded=1;whiteSpace=wrap;html=1;" parent="1" vertex="1">
                    <mxGeometry x="604.5600000000001" y="-1920" width="622.8" height="220" as="geometry"/>
                </mxCell>
                <mxCell id="493" value="" style="endArrow=none;html=1;entryX=1;entryY=0.25;entryDx=0;entryDy=0;exitX=0;exitY=0.25;exitDx=0;exitDy=0;" parent="1" source="492" target="492" edge="1">
                    <mxGeometry width="50" height="50" relative="1" as="geometry">
                        <mxPoint x="794.5600000000001" y="-1710" as="sourcePoint"/>
                        <mxPoint x="844.5600000000001" y="-1760" as="targetPoint"/>
                        <Array as="points">
                            <mxPoint x="817.36" y="-1865"/>
                        </Array>
                    </mxGeometry>
                </mxCell>
                <mxCell id="494" value="" style="endArrow=none;html=1;exitX=0.167;exitY=0.998;exitDx=0;exitDy=0;exitPerimeter=0;entryX=0.17;entryY=0.006;entryDx=0;entryDy=0;entryPerimeter=0;" parent="1" source="492" target="492" edge="1">
                    <mxGeometry width="50" height="50" relative="1" as="geometry">
                        <mxPoint x="794.5600000000001" y="-1710" as="sourcePoint"/>
                        <mxPoint x="684.5600000000001" y="-1920" as="targetPoint"/>
                    </mxGeometry>
                </mxCell>
                <mxCell id="495" value="" style="endArrow=none;html=1;exitX=0.167;exitY=0.998;exitDx=0;exitDy=0;exitPerimeter=0;entryX=0.17;entryY=0.006;entryDx=0;entryDy=0;entryPerimeter=0;" parent="1" edge="1">
                    <mxGeometry width="50" height="50" relative="1" as="geometry">
                        <mxPoint x="804.5600000000001" y="-1701.76" as="sourcePoint"/>
                        <mxPoint x="806.0300000000001" y="-1920" as="targetPoint"/>
                    </mxGeometry>
                </mxCell>
                <mxCell id="496" value="" style="endArrow=none;html=1;exitX=0.167;exitY=0.998;exitDx=0;exitDy=0;exitPerimeter=0;entryX=0.17;entryY=0.006;entryDx=0;entryDy=0;entryPerimeter=0;" parent="1" edge="1">
                    <mxGeometry width="50" height="50" relative="1" as="geometry">
                        <mxPoint x="904.5600000000001" y="-1700" as="sourcePoint"/>
                        <mxPoint x="906.0300000000001" y="-1918.2399999999998" as="targetPoint"/>
                    </mxGeometry>
                </mxCell>
                <mxCell id="497" value="NAME" style="text;html=1;fillColor=none;align=center;verticalAlign=middle;whiteSpace=wrap;rounded=0;strokeWidth=1;perimeterSpacing=0;" parent="1" vertex="1">
                    <mxGeometry x="634.5600000000001" y="-1910" width="40" height="40" as="geometry"/>
                </mxCell>
                <mxCell id="498" value="Type" style="text;html=1;fillColor=none;align=center;verticalAlign=middle;whiteSpace=wrap;rounded=0;strokeWidth=1;perimeterSpacing=0;" parent="1" vertex="1">
                    <mxGeometry x="704.5600000000001" y="-1910" width="70" height="40" as="geometry"/>
                </mxCell>
                <mxCell id="499" value="Taille" style="text;html=1;fillColor=none;align=center;verticalAlign=middle;whiteSpace=wrap;rounded=0;strokeWidth=1;perimeterSpacing=0;" parent="1" vertex="1">
                    <mxGeometry x="834.5600000000001" y="-1910" width="70" height="40" as="geometry"/>
                </mxCell>
                <mxCell id="500" value="" style="endArrow=none;html=1;" parent="1" target="492" edge="1">
                    <mxGeometry width="50" height="50" relative="1" as="geometry">
                        <mxPoint x="1019.5600000000001" y="-1700" as="sourcePoint"/>
                        <mxPoint x="1019.5600000000001" y="-1860" as="targetPoint"/>
                    </mxGeometry>
                </mxCell>
                <mxCell id="501" value="Name_produit&lt;span style=&quot;color: rgba(0 , 0 , 0 , 0) ; font-family: monospace ; font-size: 0px&quot;&gt;%3CmxGraphModel%3E%3Croot%3E%3CmxCell%20id%3D%220%22%2F%3E%3CmxCell%20id%3D%221%22%20parent%3D%220%22%2F%3E%3CmxCell%20id%3D%222%22%20value%3D%22NAME%22%20style%3D%22text%3Bhtml%3D1%3BfillColor%3Dnone%3Balign%3Dcenter%3BverticalAlign%3Dmiddle%3BwhiteSpace%3Dwrap%3Brounded%3D0%3BstrokeWidth%3D1%3BperimeterSpacing%3D0%3B%22%20vertex%3D%221%22%20parent%3D%221%22%3E%3CmxGeometry%20x%3D%22110%22%20y%3D%22110%22%20width%3D%2240%22%20height%3D%2240%22%20as%3D%22geometry%22%2F%3E%3C%2FmxCell%3E%3C%2Froot%3E%3C%2FmxGraphModel%&lt;/span&gt;" style="text;html=1;fillColor=none;align=center;verticalAlign=middle;whiteSpace=wrap;rounded=0;strokeWidth=1;perimeterSpacing=0;" parent="1" vertex="1">
                    <mxGeometry x="624.5600000000001" y="-1830" width="40" height="20" as="geometry"/>
                </mxCell>
                <mxCell id="502" value="id_produit" style="text;html=1;align=center;verticalAlign=middle;whiteSpace=wrap;rounded=0;strokeWidth=1;perimeterSpacing=0;" parent="1" vertex="1">
                    <mxGeometry x="624.5600000000001" y="-1850" width="40" height="20" as="geometry"/>
                </mxCell>
                <mxCell id="503" value="Prix" style="text;html=1;fillColor=none;align=center;verticalAlign=middle;whiteSpace=wrap;rounded=0;strokeWidth=1;perimeterSpacing=0;" parent="1" vertex="1">
                    <mxGeometry x="624.5600000000001" y="-1769" width="40" height="20" as="geometry"/>
                </mxCell>
                <mxCell id="504" value="N" style="text;html=1;align=center;verticalAlign=middle;whiteSpace=wrap;rounded=0;strokeWidth=1;perimeterSpacing=0;" parent="1" vertex="1">
                    <mxGeometry x="719.5600000000001" y="-1860" width="40" height="40" as="geometry"/>
                </mxCell>
                <mxCell id="505" value="A" style="text;html=1;align=center;verticalAlign=middle;whiteSpace=wrap;rounded=0;strokeWidth=1;perimeterSpacing=0;" parent="1" vertex="1">
                    <mxGeometry x="719.5600000000001" y="-1840" width="40" height="40" as="geometry"/>
                </mxCell>
                <mxCell id="506" value="A-N" style="text;html=1;align=center;verticalAlign=middle;whiteSpace=wrap;rounded=0;strokeWidth=1;perimeterSpacing=0;" parent="1" vertex="1">
                    <mxGeometry x="719.5600000000001" y="-1820" width="40" height="40" as="geometry"/>
                </mxCell>
                <mxCell id="507" value="A-N" style="text;html=1;align=center;verticalAlign=middle;whiteSpace=wrap;rounded=0;strokeWidth=1;perimeterSpacing=0;" parent="1" vertex="1">
                    <mxGeometry x="719.5600000000001" y="-1790" width="40" height="20" as="geometry"/>
                </mxCell>
                <mxCell id="508" value="30" style="text;html=1;align=center;verticalAlign=middle;whiteSpace=wrap;rounded=0;strokeWidth=1;perimeterSpacing=0;" parent="1" vertex="1">
                    <mxGeometry x="849.5600000000001" y="-1860" width="40" height="40" as="geometry"/>
                </mxCell>
                <mxCell id="509" value="30" style="text;html=1;align=center;verticalAlign=middle;whiteSpace=wrap;rounded=0;strokeWidth=1;perimeterSpacing=0;" parent="1" vertex="1">
                    <mxGeometry x="849.5600000000001" y="-1840" width="40" height="40" as="geometry"/>
                </mxCell>
                <mxCell id="510" value="30" style="text;html=1;align=center;verticalAlign=middle;whiteSpace=wrap;rounded=0;strokeWidth=1;perimeterSpacing=0;" parent="1" vertex="1">
                    <mxGeometry x="849.5600000000001" y="-1820" width="40" height="40" as="geometry"/>
                </mxCell>
                <mxCell id="511" value="255" style="text;html=1;align=center;verticalAlign=middle;whiteSpace=wrap;rounded=0;strokeWidth=1;perimeterSpacing=0;" parent="1" vertex="1">
                    <mxGeometry x="849.5600000000001" y="-1800" width="40" height="40" as="geometry"/>
                </mxCell>
                <mxCell id="512" value="" style="endArrow=none;html=1;" parent="1" edge="1">
                    <mxGeometry width="50" height="50" relative="1" as="geometry">
                        <mxPoint x="907.36" y="-1844" as="sourcePoint"/>
                        <mxPoint x="1087.36" y="-1844" as="targetPoint"/>
                    </mxGeometry>
                </mxCell>
                <mxCell id="513" value="" style="endArrow=none;html=1;entryX=0.773;entryY=0.004;entryDx=0;entryDy=0;entryPerimeter=0;" parent="1" target="492" edge="1">
                    <mxGeometry width="50" height="50" relative="1" as="geometry">
                        <mxPoint x="1086.59" y="-1700" as="sourcePoint"/>
                        <mxPoint x="1086.59" y="-1863" as="targetPoint"/>
                    </mxGeometry>
                </mxCell>
                <mxCell id="514" value="&lt;span style=&quot;color: rgb(220 , 221 , 222) ; font-family: &amp;#34;whitney&amp;#34; , &amp;#34;helvetica neue&amp;#34; , &amp;#34;helvetica&amp;#34; , &amp;#34;arial&amp;#34; , sans-serif ; font-size: 16px ; text-align: left ; background-color: rgba(4 , 4 , 5 , 0.07)&quot;&gt;Elementaire&lt;br&gt;&lt;/span&gt;" style="text;html=1;align=center;verticalAlign=middle;whiteSpace=wrap;rounded=0;strokeWidth=1;perimeterSpacing=0;" parent="1" vertex="1">
                    <mxGeometry x="917.85" y="-1870" width="77.2" height="30" as="geometry"/>
                </mxCell>
                <mxCell id="515" value="titel_prod" style="text;html=1;fillColor=none;align=center;verticalAlign=middle;whiteSpace=wrap;rounded=0;strokeWidth=1;perimeterSpacing=0;" parent="1" vertex="1">
                    <mxGeometry x="624.07" y="-1810" width="40" height="20" as="geometry"/>
                </mxCell>
                <mxCell id="516" value="image" style="text;html=1;fillColor=none;align=center;verticalAlign=middle;whiteSpace=wrap;rounded=0;strokeWidth=1;perimeterSpacing=0;" parent="1" vertex="1">
                    <mxGeometry x="624.5600000000001" y="-1790" width="40" height="20" as="geometry"/>
                </mxCell>
                <mxCell id="517" value="N" style="text;html=1;align=center;verticalAlign=middle;whiteSpace=wrap;rounded=0;strokeWidth=1;perimeterSpacing=0;" parent="1" vertex="1">
                    <mxGeometry x="719.5600000000001" y="-1770" width="40" height="20" as="geometry"/>
                </mxCell>
                <mxCell id="520" value="Natuer" style="text;html=1;strokeColor=none;fillColor=none;align=center;verticalAlign=middle;whiteSpace=wrap;rounded=0;" parent="1" vertex="1">
                    <mxGeometry x="995.0500000000001" y="-1900" width="40" height="20" as="geometry"/>
                </mxCell>
                <mxCell id="521" value="" style="endArrow=none;html=1;" parent="1" edge="1">
                    <mxGeometry width="50" height="50" relative="1" as="geometry">
                        <mxPoint x="1007.36" y="-1700" as="sourcePoint"/>
                        <mxPoint x="1007.38" y="-1863" as="targetPoint"/>
                    </mxGeometry>
                </mxCell>
                <mxCell id="522" value="signification" style="text;html=1;strokeColor=none;fillColor=none;align=center;verticalAlign=middle;whiteSpace=wrap;rounded=0;" parent="1" vertex="1">
                    <mxGeometry x="1133.05" y="-1900" width="40" height="20" as="geometry"/>
                </mxCell>
                <mxCell id="523" value="Number produit" style="text;html=1;strokeColor=none;fillColor=none;align=center;verticalAlign=middle;whiteSpace=wrap;rounded=0;" parent="1" vertex="1">
                    <mxGeometry x="1102" y="-1854" width="110" height="20" as="geometry"/>
                </mxCell>
                <mxCell id="524" value="Name de&amp;nbsp;produit&lt;span style=&quot;color: rgba(0 , 0 , 0 , 0) ; font-family: monospace ; font-size: 0px&quot;&gt;%3CmxGraphModel%3E%3Croot%3E%3CmxCell%20id%3D%220%22%2F%3E%3CmxCell%20id%3D%221%22%20parent%3D%220%22%2F%3E%3CmxCell%20id%3D%222%22%20value%3D%22Number%26amp%3Bnbsp%3Bclient%22%20style%3D%22text%3Bhtml%3D1%3BstrokeColor%3Dnone%3BfillColor%3Dnone%3Balign%3Dcenter%3BverticalAlign%3Dmiddle%3BwhiteSpace%3Dwrap%3Brounded%3D0%3B%22%20vertex%3D%221%22%20parent%3D%221%22%3E%3CmxGeometry%20x%3D%221134.15%22%20y%3D%22-2114%22%20width%3D%2240%22%20height%3D%2220%22%20as%3D%22geometry%22%2F%3E%3C%2FmxCell%3E%3C%2Froot%3E%3C%2FmxGraphModel%3E&lt;/span&gt;" style="text;html=1;strokeColor=none;fillColor=none;align=center;verticalAlign=middle;whiteSpace=wrap;rounded=0;" parent="1" vertex="1">
                    <mxGeometry x="1111.51" y="-1830" width="100" height="20" as="geometry"/>
                </mxCell>
                <mxCell id="525" value="titel produit" style="text;html=1;strokeColor=none;fillColor=none;align=center;verticalAlign=middle;whiteSpace=wrap;rounded=0;" parent="1" vertex="1">
                    <mxGeometry x="1111.51" y="-1810" width="100" height="20" as="geometry"/>
                </mxCell>
                <mxCell id="526" value="image" style="text;html=1;strokeColor=none;fillColor=none;align=center;verticalAlign=middle;whiteSpace=wrap;rounded=0;" parent="1" vertex="1">
                    <mxGeometry x="1111.51" y="-1789" width="100" height="20" as="geometry"/>
                </mxCell>
                <mxCell id="527" value="Prix" style="text;html=1;strokeColor=none;fillColor=none;align=center;verticalAlign=middle;whiteSpace=wrap;rounded=0;" parent="1" vertex="1">
                    <mxGeometry x="1111.51" y="-1769" width="100" height="20" as="geometry"/>
                </mxCell>
                <mxCell id="529" value="30" style="text;html=1;align=center;verticalAlign=middle;whiteSpace=wrap;rounded=0;strokeWidth=1;perimeterSpacing=0;" parent="1" vertex="1">
                    <mxGeometry x="849.5600000000001" y="-1779" width="40" height="40" as="geometry"/>
                </mxCell>
                <mxCell id="531" value="&lt;span style=&quot;color: rgb(220 , 221 , 222) ; font-family: &amp;#34;whitney&amp;#34; , &amp;#34;helvetica neue&amp;#34; , &amp;#34;helvetica&amp;#34; , &amp;#34;arial&amp;#34; , sans-serif ; font-size: 16px ; text-align: left ; background-color: rgba(4 , 4 , 5 , 0.07)&quot;&gt;Calcule&lt;br&gt;&lt;/span&gt;" style="text;html=1;align=center;verticalAlign=middle;whiteSpace=wrap;rounded=0;strokeWidth=1;perimeterSpacing=0;" parent="1" vertex="1">
                    <mxGeometry x="1028.05" y="-1870" width="40" height="30" as="geometry"/>
                </mxCell>
                <mxCell id="532" value="&lt;span style=&quot;color: rgb(220 , 221 , 222) ; font-family: &amp;#34;whitney&amp;#34; , &amp;#34;helvetica neue&amp;#34; , &amp;#34;helvetica&amp;#34; , &amp;#34;arial&amp;#34; , sans-serif ; text-align: left ; background-color: rgba(4 , 4 , 5 , 0.07)&quot;&gt;&lt;font style=&quot;font-size: 12px&quot;&gt;X&lt;/font&gt;&lt;br&gt;&lt;/span&gt;" style="text;html=1;align=center;verticalAlign=middle;whiteSpace=wrap;rounded=0;strokeWidth=1;perimeterSpacing=0;opacity=90;" parent="1" vertex="1">
                    <mxGeometry x="936.45" y="-1844" width="40" height="15" as="geometry"/>
                </mxCell>
                <mxCell id="533" value="&lt;span style=&quot;color: rgb(220 , 221 , 222) ; font-family: &amp;#34;whitney&amp;#34; , &amp;#34;helvetica neue&amp;#34; , &amp;#34;helvetica&amp;#34; , &amp;#34;arial&amp;#34; , sans-serif ; text-align: left ; background-color: rgba(4 , 4 , 5 , 0.07)&quot;&gt;&lt;font style=&quot;font-size: 12px&quot;&gt;X&lt;/font&gt;&lt;br&gt;&lt;/span&gt;" style="text;html=1;align=center;verticalAlign=middle;whiteSpace=wrap;rounded=0;strokeWidth=1;perimeterSpacing=0;opacity=90;" parent="1" vertex="1">
                    <mxGeometry x="936.45" y="-1827.5" width="40" height="15" as="geometry"/>
                </mxCell>
                <mxCell id="534" value="&lt;span style=&quot;color: rgb(220 , 221 , 222) ; font-family: &amp;#34;whitney&amp;#34; , &amp;#34;helvetica neue&amp;#34; , &amp;#34;helvetica&amp;#34; , &amp;#34;arial&amp;#34; , sans-serif ; text-align: left ; background-color: rgba(4 , 4 , 5 , 0.07)&quot;&gt;&lt;font style=&quot;font-size: 12px&quot;&gt;X&lt;/font&gt;&lt;br&gt;&lt;/span&gt;" style="text;html=1;align=center;verticalAlign=middle;whiteSpace=wrap;rounded=0;strokeWidth=1;perimeterSpacing=0;opacity=90;" parent="1" vertex="1">
                    <mxGeometry x="936.45" y="-1807.5" width="40" height="15" as="geometry"/>
                </mxCell>
                <mxCell id="535" value="&lt;span style=&quot;color: rgb(220 , 221 , 222) ; font-family: &amp;#34;whitney&amp;#34; , &amp;#34;helvetica neue&amp;#34; , &amp;#34;helvetica&amp;#34; , &amp;#34;arial&amp;#34; , sans-serif ; text-align: left ; background-color: rgba(4 , 4 , 5 , 0.07)&quot;&gt;&lt;font style=&quot;font-size: 12px&quot;&gt;X&lt;/font&gt;&lt;br&gt;&lt;/span&gt;" style="text;html=1;align=center;verticalAlign=middle;whiteSpace=wrap;rounded=0;strokeWidth=1;perimeterSpacing=0;opacity=90;" parent="1" vertex="1">
                    <mxGeometry x="936.45" y="-1786.5" width="40" height="15" as="geometry"/>
                </mxCell>
                <mxCell id="536" value="&lt;span style=&quot;color: rgb(220 , 221 , 222) ; font-family: &amp;#34;whitney&amp;#34; , &amp;#34;helvetica neue&amp;#34; , &amp;#34;helvetica&amp;#34; , &amp;#34;arial&amp;#34; , sans-serif ; text-align: left ; background-color: rgba(4 , 4 , 5 , 0.07)&quot;&gt;&lt;font style=&quot;font-size: 12px&quot;&gt;X&lt;/font&gt;&lt;br&gt;&lt;/span&gt;" style="text;html=1;align=center;verticalAlign=middle;whiteSpace=wrap;rounded=0;strokeWidth=1;perimeterSpacing=0;opacity=90;" parent="1" vertex="1">
                    <mxGeometry x="936.45" y="-1766.5" width="40" height="15" as="geometry"/>
                </mxCell>
                <mxCell id="537" value="" style="rounded=1;whiteSpace=wrap;html=1;" vertex="1" parent="1">
                    <mxGeometry x="618.0000000000001" y="-1660" width="622.8" height="220" as="geometry"/>
                </mxCell>
                <mxCell id="538" value="" style="endArrow=none;html=1;entryX=1;entryY=0.25;entryDx=0;entryDy=0;exitX=0;exitY=0.25;exitDx=0;exitDy=0;" edge="1" parent="1" source="537" target="537">
                    <mxGeometry width="50" height="50" relative="1" as="geometry">
                        <mxPoint x="808.0000000000001" y="-1450" as="sourcePoint"/>
                        <mxPoint x="858.0000000000001" y="-1500" as="targetPoint"/>
                        <Array as="points">
                            <mxPoint x="830.8000000000001" y="-1605"/>
                        </Array>
                    </mxGeometry>
                </mxCell>
                <mxCell id="539" value="" style="endArrow=none;html=1;exitX=0.167;exitY=0.998;exitDx=0;exitDy=0;exitPerimeter=0;entryX=0.17;entryY=0.006;entryDx=0;entryDy=0;entryPerimeter=0;" edge="1" parent="1" source="537" target="537">
                    <mxGeometry width="50" height="50" relative="1" as="geometry">
                        <mxPoint x="808.0000000000001" y="-1450" as="sourcePoint"/>
                        <mxPoint x="698.0000000000001" y="-1660" as="targetPoint"/>
                    </mxGeometry>
                </mxCell>
                <mxCell id="540" value="" style="endArrow=none;html=1;exitX=0.167;exitY=0.998;exitDx=0;exitDy=0;exitPerimeter=0;entryX=0.17;entryY=0.006;entryDx=0;entryDy=0;entryPerimeter=0;" edge="1" parent="1">
                    <mxGeometry width="50" height="50" relative="1" as="geometry">
                        <mxPoint x="818" y="-1441.7600000000002" as="sourcePoint"/>
                        <mxPoint x="819.4700000000003" y="-1660" as="targetPoint"/>
                    </mxGeometry>
                </mxCell>
                <mxCell id="541" value="" style="endArrow=none;html=1;exitX=0.167;exitY=0.998;exitDx=0;exitDy=0;exitPerimeter=0;entryX=0.17;entryY=0.006;entryDx=0;entryDy=0;entryPerimeter=0;" edge="1" parent="1">
                    <mxGeometry width="50" height="50" relative="1" as="geometry">
                        <mxPoint x="918" y="-1440" as="sourcePoint"/>
                        <mxPoint x="919.4700000000003" y="-1658.2399999999998" as="targetPoint"/>
                    </mxGeometry>
                </mxCell>
                <mxCell id="542" value="NAME" style="text;html=1;fillColor=none;align=center;verticalAlign=middle;whiteSpace=wrap;rounded=0;strokeWidth=1;perimeterSpacing=0;" vertex="1" parent="1">
                    <mxGeometry x="648.0000000000001" y="-1650" width="40" height="40" as="geometry"/>
                </mxCell>
                <mxCell id="543" value="Type" style="text;html=1;fillColor=none;align=center;verticalAlign=middle;whiteSpace=wrap;rounded=0;strokeWidth=1;perimeterSpacing=0;" vertex="1" parent="1">
                    <mxGeometry x="718.0000000000001" y="-1650" width="70" height="40" as="geometry"/>
                </mxCell>
                <mxCell id="544" value="Taille" style="text;html=1;fillColor=none;align=center;verticalAlign=middle;whiteSpace=wrap;rounded=0;strokeWidth=1;perimeterSpacing=0;" vertex="1" parent="1">
                    <mxGeometry x="848.0000000000001" y="-1650" width="70" height="40" as="geometry"/>
                </mxCell>
                <mxCell id="545" value="" style="endArrow=none;html=1;" edge="1" parent="1" target="537">
                    <mxGeometry width="50" height="50" relative="1" as="geometry">
                        <mxPoint x="1033" y="-1440" as="sourcePoint"/>
                        <mxPoint x="1033" y="-1600" as="targetPoint"/>
                    </mxGeometry>
                </mxCell>
                <mxCell id="546" value="Sujet" style="text;html=1;fillColor=none;align=center;verticalAlign=middle;whiteSpace=wrap;rounded=0;strokeWidth=1;perimeterSpacing=0;" vertex="1" parent="1">
                    <mxGeometry x="638.0000000000001" y="-1570" width="40" height="20" as="geometry"/>
                </mxCell>
                <mxCell id="547" value="id_message" style="text;html=1;align=center;verticalAlign=middle;whiteSpace=wrap;rounded=0;strokeWidth=1;perimeterSpacing=0;" vertex="1" parent="1">
                    <mxGeometry x="638.0000000000001" y="-1590" width="40" height="20" as="geometry"/>
                </mxCell>
                <mxCell id="549" value="N" style="text;html=1;align=center;verticalAlign=middle;whiteSpace=wrap;rounded=0;strokeWidth=1;perimeterSpacing=0;" vertex="1" parent="1">
                    <mxGeometry x="733.0000000000001" y="-1600" width="40" height="40" as="geometry"/>
                </mxCell>
                <mxCell id="550" value="A-N" style="text;html=1;align=center;verticalAlign=middle;whiteSpace=wrap;rounded=0;strokeWidth=1;perimeterSpacing=0;" vertex="1" parent="1">
                    <mxGeometry x="733.0000000000001" y="-1580" width="40" height="40" as="geometry"/>
                </mxCell>
                <mxCell id="551" value="A-N" style="text;html=1;align=center;verticalAlign=middle;whiteSpace=wrap;rounded=0;strokeWidth=1;perimeterSpacing=0;" vertex="1" parent="1">
                    <mxGeometry x="733.0000000000001" y="-1560" width="40" height="40" as="geometry"/>
                </mxCell>
                <mxCell id="553" value="30" style="text;html=1;align=center;verticalAlign=middle;whiteSpace=wrap;rounded=0;strokeWidth=1;perimeterSpacing=0;" vertex="1" parent="1">
                    <mxGeometry x="863.0000000000001" y="-1600" width="40" height="40" as="geometry"/>
                </mxCell>
                <mxCell id="554" value="100" style="text;html=1;align=center;verticalAlign=middle;whiteSpace=wrap;rounded=0;strokeWidth=1;perimeterSpacing=0;" vertex="1" parent="1">
                    <mxGeometry x="863.0000000000001" y="-1580" width="40" height="40" as="geometry"/>
                </mxCell>
                <mxCell id="555" value="255" style="text;html=1;align=center;verticalAlign=middle;whiteSpace=wrap;rounded=0;strokeWidth=1;perimeterSpacing=0;" vertex="1" parent="1">
                    <mxGeometry x="863.0000000000001" y="-1560" width="40" height="40" as="geometry"/>
                </mxCell>
                <mxCell id="557" value="" style="endArrow=none;html=1;" edge="1" parent="1">
                    <mxGeometry width="50" height="50" relative="1" as="geometry">
                        <mxPoint x="920.8000000000002" y="-1584" as="sourcePoint"/>
                        <mxPoint x="1100.8" y="-1584" as="targetPoint"/>
                    </mxGeometry>
                </mxCell>
                <mxCell id="558" value="" style="endArrow=none;html=1;entryX=0.773;entryY=0.004;entryDx=0;entryDy=0;entryPerimeter=0;" edge="1" parent="1" target="537">
                    <mxGeometry width="50" height="50" relative="1" as="geometry">
                        <mxPoint x="1100.03" y="-1440" as="sourcePoint"/>
                        <mxPoint x="1100.03" y="-1603" as="targetPoint"/>
                    </mxGeometry>
                </mxCell>
                <mxCell id="559" value="&lt;span style=&quot;color: rgb(220 , 221 , 222) ; font-family: &amp;#34;whitney&amp;#34; , &amp;#34;helvetica neue&amp;#34; , &amp;#34;helvetica&amp;#34; , &amp;#34;arial&amp;#34; , sans-serif ; font-size: 16px ; text-align: left ; background-color: rgba(4 , 4 , 5 , 0.07)&quot;&gt;Elementaire&lt;br&gt;&lt;/span&gt;" style="text;html=1;align=center;verticalAlign=middle;whiteSpace=wrap;rounded=0;strokeWidth=1;perimeterSpacing=0;" vertex="1" parent="1">
                    <mxGeometry x="931.2900000000001" y="-1610" width="77.2" height="30" as="geometry"/>
                </mxCell>
                <mxCell id="560" value="message" style="text;html=1;fillColor=none;align=center;verticalAlign=middle;whiteSpace=wrap;rounded=0;strokeWidth=1;perimeterSpacing=0;" vertex="1" parent="1">
                    <mxGeometry x="637.5100000000001" y="-1550" width="40" height="20" as="geometry"/>
                </mxCell>
                <mxCell id="563" value="Natuer" style="text;html=1;strokeColor=none;fillColor=none;align=center;verticalAlign=middle;whiteSpace=wrap;rounded=0;" vertex="1" parent="1">
                    <mxGeometry x="1008.4900000000001" y="-1640" width="40" height="20" as="geometry"/>
                </mxCell>
                <mxCell id="564" value="" style="endArrow=none;html=1;" edge="1" parent="1">
                    <mxGeometry width="50" height="50" relative="1" as="geometry">
                        <mxPoint x="1020.8000000000002" y="-1440" as="sourcePoint"/>
                        <mxPoint x="1020.8200000000002" y="-1603" as="targetPoint"/>
                    </mxGeometry>
                </mxCell>
                <mxCell id="565" value="signification" style="text;html=1;strokeColor=none;fillColor=none;align=center;verticalAlign=middle;whiteSpace=wrap;rounded=0;" vertex="1" parent="1">
                    <mxGeometry x="1146.49" y="-1640" width="40" height="20" as="geometry"/>
                </mxCell>
                <mxCell id="566" value="Number message&amp;nbsp;" style="text;html=1;strokeColor=none;fillColor=none;align=center;verticalAlign=middle;whiteSpace=wrap;rounded=0;" vertex="1" parent="1">
                    <mxGeometry x="1115.44" y="-1594" width="110" height="20" as="geometry"/>
                </mxCell>
                <mxCell id="567" value="sujet de message" style="text;html=1;strokeColor=none;fillColor=none;align=center;verticalAlign=middle;whiteSpace=wrap;rounded=0;" vertex="1" parent="1">
                    <mxGeometry x="1124.95" y="-1570" width="100" height="20" as="geometry"/>
                </mxCell>
                <mxCell id="568" value="message envoye" style="text;html=1;strokeColor=none;fillColor=none;align=center;verticalAlign=middle;whiteSpace=wrap;rounded=0;" vertex="1" parent="1">
                    <mxGeometry x="1124.95" y="-1550" width="100" height="20" as="geometry"/>
                </mxCell>
                <mxCell id="572" value="&lt;span style=&quot;color: rgb(220 , 221 , 222) ; font-family: &amp;#34;whitney&amp;#34; , &amp;#34;helvetica neue&amp;#34; , &amp;#34;helvetica&amp;#34; , &amp;#34;arial&amp;#34; , sans-serif ; font-size: 16px ; text-align: left ; background-color: rgba(4 , 4 , 5 , 0.07)&quot;&gt;Calcule&lt;br&gt;&lt;/span&gt;" style="text;html=1;align=center;verticalAlign=middle;whiteSpace=wrap;rounded=0;strokeWidth=1;perimeterSpacing=0;" vertex="1" parent="1">
                    <mxGeometry x="1041.49" y="-1610" width="40" height="30" as="geometry"/>
                </mxCell>
                <mxCell id="573" value="&lt;span style=&quot;color: rgb(220 , 221 , 222) ; font-family: &amp;#34;whitney&amp;#34; , &amp;#34;helvetica neue&amp;#34; , &amp;#34;helvetica&amp;#34; , &amp;#34;arial&amp;#34; , sans-serif ; text-align: left ; background-color: rgba(4 , 4 , 5 , 0.07)&quot;&gt;&lt;font style=&quot;font-size: 12px&quot;&gt;X&lt;/font&gt;&lt;br&gt;&lt;/span&gt;" style="text;html=1;align=center;verticalAlign=middle;whiteSpace=wrap;rounded=0;strokeWidth=1;perimeterSpacing=0;opacity=90;" vertex="1" parent="1">
                    <mxGeometry x="949.8900000000001" y="-1584" width="40" height="15" as="geometry"/>
                </mxCell>
                <mxCell id="574" value="&lt;span style=&quot;color: rgb(220 , 221 , 222) ; font-family: &amp;#34;whitney&amp;#34; , &amp;#34;helvetica neue&amp;#34; , &amp;#34;helvetica&amp;#34; , &amp;#34;arial&amp;#34; , sans-serif ; text-align: left ; background-color: rgba(4 , 4 , 5 , 0.07)&quot;&gt;&lt;font style=&quot;font-size: 12px&quot;&gt;X&lt;/font&gt;&lt;br&gt;&lt;/span&gt;" style="text;html=1;align=center;verticalAlign=middle;whiteSpace=wrap;rounded=0;strokeWidth=1;perimeterSpacing=0;opacity=90;" vertex="1" parent="1">
                    <mxGeometry x="949.8900000000001" y="-1567.5" width="40" height="15" as="geometry"/>
                </mxCell>
                <mxCell id="575" value="&lt;span style=&quot;color: rgb(220 , 221 , 222) ; font-family: &amp;#34;whitney&amp;#34; , &amp;#34;helvetica neue&amp;#34; , &amp;#34;helvetica&amp;#34; , &amp;#34;arial&amp;#34; , sans-serif ; text-align: left ; background-color: rgba(4 , 4 , 5 , 0.07)&quot;&gt;&lt;font style=&quot;font-size: 12px&quot;&gt;X&lt;/font&gt;&lt;br&gt;&lt;/span&gt;" style="text;html=1;align=center;verticalAlign=middle;whiteSpace=wrap;rounded=0;strokeWidth=1;perimeterSpacing=0;opacity=90;" vertex="1" parent="1">
                    <mxGeometry x="949.8900000000001" y="-1547.5" width="40" height="15" as="geometry"/>
                </mxCell>
            </root>
        </mxGraphModel>
    </diagram>
</mxfile>